<?xml version="1.0" encoding="UTF-8"?>
<svg id="Layer_1" data-name="Layer 1" xmlns="http://www.w3.org/2000/svg" viewBox="0 0 185 185">
  <defs>
    <style>
      .cls-1 {
        fill: #2c2c31;
      }

      .cls-1, .cls-2 {
        stroke-width: 0px;
      }

      .cls-2 {
        fill: #00aeef;
      }
    </style>
  </defs>
  <g>
    <g>
      <polygon class="cls-2" points="176.6 153.89 176.6 160.69 145.2 160.69 145.2 120.72 153.95 120.72 153.95 153.89 176.6 153.89"/>
      <path class="cls-2" d="M40.48,130.98c-1.08-2.53-2.72-4.82-5.06-6.55-4.82-3.54-11.57-3.6-13.79-3.6l-13.23-.06v39.91h12.46c4.04,0,5.7-.16,7.2-.44,7.58-1.38,14.17-7.81,14.17-20.1,0-3.05-.51-6.27-1.75-9.17ZM29.77,151.45c-2.49,2.49-5.64,2.77-9.3,2.77-1,0-2.43-.06-3.38-.11v-26.85c4.93-.22,7.2.06,8.97.55,4.56,1.27,6.65,5.21,7.17,9.84.09.82.14,1.66.14,2.51,0,1.94-.22,7.92-3.6,11.29Z"/>
      <path class="cls-2" d="M84.8,148.63c0,7.2-5.98,13.01-17.05,13.01-3.71,0-6.53-.58-8.67-1.51h0c-6.72-2.91-6.79-9.28-6.83-12.22h8.75c0,1.6-.08,5.96,4.41,7.23,0,0,1.73.36,2.84.36,4.65,0,7.58-2.22,7.58-5.59,0-1.05-.22-1.84-.66-2.47h0c-1.04-1.49-3.34-2.05-6.92-2.9-9.52-2.38-14.73-5.2-14.73-12.12s4.71-12.4,15.84-12.4c4.15,0,9.08.94,12.07,4.71,2.27,2.88,2.27,6.09,2.27,7.42h-8.24c-.11-1.38-.55-6.09-6.48-6.09-3.99,0-6.59,2.16-6.59,5.43,0,3.71,2.94,4.37,8.69,5.81,4.26,1.02,8.47,2.13,11.08,4.64h0c1.64,1.57,2.65,3.7,2.65,6.71Z"/>
    </g>
    <g>
      <path class="cls-2" d="M85.76,25.78c1.46.84,3.05,1.26,4.62,1.28,3.38.06,6.68-1.67,8.49-4.79,2.65-4.59,1.07-10.46-3.51-13.11-1.57-.9-3.29-1.32-4.97-1.28-3.25.06-6.39,1.78-8.13,4.8-2.65,4.59-1.08,10.46,3.51,13.1Z"/>
      <path class="cls-2" d="M63.85,67.56l14.77-5.28c1.85-.66,3.24-2.42,3.89-4.42.65-2,.56-4.24-.55-5.87l-8.85-12.95c-2.22-3.25-6.85-1.6-8.34,2.98l-2.96,9.11-2.96,9.11c-1.48,4.57,1.29,8.63,5,7.31Z"/>
      <path class="cls-2" d="M59.08,50.25c1.1-3.19.48-6.87-1.94-9.55-3.55-3.94-9.61-4.25-13.55-.71-1.34,1.21-2.27,2.72-2.76,4.33-.95,3.11-.28,6.62,2.05,9.22,3.55,3.94,9.61,4.26,13.55.71,1.25-1.13,2.14-2.51,2.65-4Z"/>
      <path class="cls-2" d="M87.93,72.62c-.05-1.96-1.3-3.83-3-5.07-1.7-1.24-3.86-1.84-5.75-1.29l-15.05,4.42c-3.77,1.11-3.63,6.02.26,8.85l7.75,5.63,7.75,5.63c3.89,2.82,8.61,1.44,8.49-2.5l-.46-15.67Z"/>
      <path class="cls-2" d="M70.45,87.48c-2.7-2.04-6.38-2.58-9.68-1.11-4.84,2.16-7.01,7.83-4.86,12.67.74,1.65,1.88,3,3.27,3.96,2.67,1.86,6.21,2.32,9.4.9,4.84-2.16,7.02-7.82,4.86-12.66-.69-1.54-1.73-2.81-2.99-3.75Z"/>
      <path class="cls-2" d="M139.93,44.33c-.49-1.61-1.41-3.12-2.76-4.33-3.94-3.54-10.01-3.23-13.55.71-2.42,2.68-3.04,6.36-1.94,9.55.51,1.49,1.4,2.87,2.65,4,3.94,3.55,10,3.23,13.55-.71,2.33-2.59,2.99-6.1,2.05-9.22Z"/>
      <path class="cls-2" d="M95.79,49.36l9.58-12.42c2.4-3.11-.6-7.01-5.41-7.01h-19.16c-4.81,0-7.81,3.9-5.4,7.01l9.58,12.41c1.2,1.56,3.3,2.34,5.4,2.34s4.21-.78,5.41-2.34Z"/>
      <path class="cls-2" d="M116.37,79.53c3.89-2.83,4.03-7.74.26-8.85l-15.05-4.42c-1.89-.55-4.05.05-5.75,1.29-1.7,1.24-2.94,3.1-3,5.07l-.46,15.67c-.11,3.93,4.61,5.32,8.49,2.5l7.75-5.63,7.75-5.63Z"/>
      <path class="cls-2" d="M119.99,86.37c-3.3-1.47-6.99-.92-9.68,1.11-1.26.95-2.3,2.21-2.99,3.75-2.16,4.84.02,10.51,4.86,12.66,3.19,1.42,6.73.96,9.4-.9,1.38-.96,2.53-2.31,3.27-3.96,2.15-4.84-.02-10.51-4.86-12.67Z"/>
      <path class="cls-2" d="M98.25,57.87c.65,2,2.04,3.76,3.89,4.42l14.77,5.28c3.7,1.32,6.48-2.74,5-7.31l-2.96-9.11-2.96-9.11c-1.49-4.57-6.12-6.23-8.34-2.98l-8.85,12.95c-1.11,1.63-1.2,3.87-.55,5.87Z"/>
    </g>
    <polygon class="cls-2" points="132.14 160.69 120.34 160.69 104.84 127.48 104.84 160.7 96.76 160.7 96.76 120.67 109.16 120.67 124.17 152.17 124.16 120.67 132.14 120.67 132.14 160.69"/>
  </g>
  <g>
    <g>
      <path class="cls-1" d="M96.31,168.57c.97-1.05,2.25-1.26,3.12-1.26,2.59,0,4.22,1.66,4.22,4.83,0,2.49-1,4.98-4.32,4.98s-4.22-2.27-4.22-4.83c0-1.06.18-2.63,1.2-3.73ZM97.3,175.17c.53.66,1.33.85,2.07.85s1.53-.21,2.07-.85c.76-.93.84-2.41.84-3.04,0-2.12-.7-3.73-2.84-3.73-2.37,0-2.98,1.9-2.98,3.82,0,1.02.18,2.15.83,2.95Z"/>
      <path class="cls-1" d="M107.46,167.56h1.8l4.6,7.73v-7.73h1.19v9.35h-1.66l-4.75-7.94v7.94h-1.18v-9.35Z"/>
      <path class="cls-1" d="M119.1,167.56h5.86v1.1h-4.57v2.91h4.35v1.09h-4.35v3.11h4.67v1.14h-5.97v-9.35Z"/>
      <path class="cls-1" d="M136.89,176.91h-1.42l-3.33-9.35h1.44l2.65,7.99,2.8-7.99h1.31l-3.44,9.35Z"/>
      <path class="cls-1" d="M143.85,168.57c.97-1.05,2.25-1.26,3.12-1.26,2.59,0,4.22,1.66,4.22,4.83,0,2.49-1,4.98-4.32,4.98s-4.22-2.27-4.22-4.83c0-1.06.18-2.63,1.2-3.73ZM144.84,175.17c.53.66,1.33.85,2.07.85s1.53-.21,2.07-.85c.76-.93.84-2.41.84-3.04,0-2.12-.7-3.73-2.84-3.73-2.37,0-2.98,1.9-2.98,3.82,0,1.02.18,2.15.83,2.95Z"/>
      <path class="cls-1" d="M154.91,167.56h1.29v9.35h-1.29v-9.35Z"/>
      <path class="cls-1" d="M165.95,170.08c-.05-.32-.22-1.62-2.02-1.62-2.25,0-2.65,2.3-2.65,3.86,0,1.76.51,3.66,2.64,3.66.57,0,1.11-.14,1.51-.56.34-.36.41-.76.45-.98h1.42c-.19,1.84-1.89,2.6-3.5,2.6-3.29,0-3.92-2.9-3.92-4.71,0-1.97.76-4.91,4.09-4.91,1.32,0,3.18.53,3.35,2.65h-1.39Z"/>
      <path class="cls-1" d="M170.61,167.56h5.86v1.1h-4.57v2.91h4.35v1.09h-4.35v3.11h4.67v1.14h-5.97v-9.35Z"/>
    </g>
    <g>
      <path class="cls-1" d="M9.61,168.57c.97-1.05,2.25-1.26,3.12-1.26,2.59,0,4.22,1.66,4.22,4.83,0,2.49-1,4.98-4.32,4.98s-4.22-2.27-4.22-4.83c0-1.06.18-2.63,1.2-3.73ZM10.59,175.17c.53.66,1.33.85,2.07.85s1.53-.21,2.07-.85c.76-.93.84-2.41.84-3.04,0-2.12-.7-3.73-2.84-3.73-2.37,0-2.98,1.9-2.98,3.82,0,1.02.18,2.15.83,2.95Z"/>
      <path class="cls-1" d="M20.76,167.56h1.8l4.6,7.73v-7.73h1.19v9.35h-1.66l-4.75-7.94v7.94h-1.18v-9.35Z"/>
      <path class="cls-1" d="M32.4,167.56h5.86v1.1h-4.57v2.91h4.35v1.09h-4.35v3.11h4.67v1.14h-5.97v-9.35Z"/>
      <path class="cls-1" d="M47.62,176.91v-8.25h-3.13v-1.1h7.55v1.1h-3.13v8.25h-1.28Z"/>
      <path class="cls-1" d="M54.92,167.56h5.86v1.1h-4.57v2.91h4.35v1.09h-4.35v3.11h4.67v1.14h-5.97v-9.35Z"/>
      <path class="cls-1" d="M67.71,167.56h1.39l3.78,9.35h-1.41l-1.01-2.43h-4.34l-1.01,2.43h-1.33l3.94-9.35ZM66.54,173.42h3.53l-1.72-4.58-1.81,4.58Z"/>
      <path class="cls-1" d="M75.99,167.56h2.29l2.64,7.7,2.71-7.7h2.14v9.35h-1.27v-8.42l-3.07,8.42h-1.23l-2.95-8.36v8.36h-1.26v-9.35Z"/>
    </g>
  </g>
</svg>