<?xml version="1.0" encoding="UTF-8"?>
<svg id="Layer_1" data-name="Layer 1" xmlns="http://www.w3.org/2000/svg" viewBox="0 0 175.32 59.74">
  <defs>
    <style>
      .cls-1 {
        fill: #00aeef;
      }

      .cls-1, .cls-2 {
        stroke-width: 0px;
      }

      .cls-2 {
        fill: #231f20;
      }
    </style>
  </defs>
  <g>
    <g>
      <path class="cls-2" d="M121.37,50.91c.61-.66,1.41-.79,1.95-.79,1.62,0,2.64,1.04,2.64,3.02,0,1.55-.62,3.12-2.7,3.12s-2.64-1.42-2.64-3.02c0-.66.11-1.64.75-2.33ZM121.98,55.04c.33.41.83.53,1.3.53s.96-.13,1.3-.53c.48-.58.53-1.51.53-1.9,0-1.33-.44-2.33-1.77-2.33-1.48,0-1.86,1.19-1.86,2.39,0,.64.11,1.34.52,1.85Z"/>
      <path class="cls-2" d="M128.34,50.28h1.13l2.87,4.83v-4.83h.74v5.84h-1.04l-2.97-4.96v4.96h-.74v-5.84Z"/>
      <path class="cls-2" d="M135.62,50.28h3.67v.69h-2.86v1.82h2.72v.68h-2.72v1.94h2.92v.71h-3.73v-5.84Z"/>
      <path class="cls-2" d="M146.74,56.12h-.89l-2.08-5.84h.9l1.66,4.99,1.75-4.99h.82l-2.15,5.84Z"/>
      <path class="cls-2" d="M151.09,50.91c.61-.66,1.41-.79,1.95-.79,1.62,0,2.64,1.04,2.64,3.02,0,1.55-.62,3.12-2.7,3.12s-2.64-1.42-2.64-3.02c0-.66.11-1.64.75-2.33ZM151.71,55.04c.33.41.83.53,1.3.53s.96-.13,1.3-.53c.48-.58.53-1.51.53-1.9,0-1.33-.44-2.33-1.77-2.33-1.48,0-1.86,1.19-1.86,2.39,0,.64.11,1.34.52,1.85Z"/>
      <path class="cls-2" d="M158.01,50.28h.81v5.84h-.81v-5.84Z"/>
      <path class="cls-2" d="M164.91,51.86c-.03-.2-.14-1.01-1.26-1.01-1.41,0-1.66,1.44-1.66,2.41,0,1.1.32,2.29,1.65,2.29.36,0,.7-.09.95-.35.21-.23.26-.48.28-.62h.89c-.12,1.15-1.18,1.63-2.19,1.63-2.06,0-2.45-1.81-2.45-2.95,0-1.23.48-3.07,2.56-3.07.83,0,1.99.33,2.1,1.66h-.87Z"/>
      <path class="cls-2" d="M167.83,50.28h3.67v.69h-2.86v1.82h2.72v.68h-2.72v1.94h2.92v.71h-3.73v-5.84Z"/>
    </g>
    <g>
      <path class="cls-2" d="M67.16,50.91c.61-.66,1.41-.79,1.95-.79,1.62,0,2.64,1.04,2.64,3.02,0,1.55-.62,3.12-2.7,3.12s-2.64-1.42-2.64-3.02c0-.66.11-1.64.75-2.33ZM67.77,55.04c.33.41.83.53,1.3.53s.96-.13,1.3-.53c.48-.58.53-1.51.53-1.9,0-1.33-.44-2.33-1.77-2.33-1.48,0-1.86,1.19-1.86,2.39,0,.64.11,1.34.52,1.85Z"/>
      <path class="cls-2" d="M74.13,50.28h1.13l2.87,4.83v-4.83h.74v5.84h-1.04l-2.97-4.96v4.96h-.74v-5.84Z"/>
      <path class="cls-2" d="M81.41,50.28h3.67v.69h-2.86v1.82h2.72v.68h-2.72v1.94h2.92v.71h-3.73v-5.84Z"/>
      <path class="cls-2" d="M90.93,56.12v-5.16h-1.96v-.69h4.72v.69h-1.96v5.16h-.8Z"/>
      <path class="cls-2" d="M95.49,50.28h3.67v.69h-2.86v1.82h2.72v.68h-2.72v1.94h2.92v.71h-3.73v-5.84Z"/>
      <path class="cls-2" d="M103.49,50.28h.87l2.36,5.84h-.88l-.63-1.52h-2.71l-.63,1.52h-.83l2.46-5.84ZM102.75,53.94h2.21l-1.08-2.87-1.13,2.87Z"/>
      <path class="cls-2" d="M108.66,50.28h1.43l1.65,4.82,1.69-4.82h1.34v5.84h-.79v-5.26l-1.92,5.26h-.77l-1.85-5.23v5.23h-.79v-5.84Z"/>
    </g>
  </g>
  <path class="cls-1" d="M171.56,40.82v4.26h-19.63v-24.99h5.47v20.73s14.16,0,14.16,0ZM87.55,32.24c0,7.68-4.12,11.7-8.86,12.57-.94.17-1.97.28-4.5.28h-7.79v-24.95l8.27.03c1.39,0,5.61.04,8.62,2.25,1.47,1.08,2.49,2.51,3.17,4.09.78,1.82,1.09,3.83,1.09,5.74ZM82.02,32.24c0-.53-.03-1.06-.09-1.57-.33-2.89-1.63-5.35-4.48-6.15-1.11-.31-2.52-.48-5.61-.35v16.79c.59.03,1.49.07,2.11.07,2.28,0,4.26-.17,5.81-1.73,2.11-2.11,2.25-5.85,2.25-7.06ZM112.51,33.34h0c-1.63-1.57-4.27-2.26-6.93-2.9-3.6-.9-5.43-1.32-5.43-3.63,0-2.04,1.63-3.39,4.12-3.39,3.7,0,3.98,2.94,4.05,3.81h5.15c0-.83,0-2.84-1.42-4.64-1.87-2.36-4.95-2.94-7.55-2.94-6.96,0-9.9,3.63-9.9,7.75,0,4.33,3.25,6.09,9.21,7.58,2.24.54,3.68.88,4.33,1.82h0c.28.39.41.89.41,1.54,0,2.11-1.83,3.5-4.74,3.5-.69,0-1.78-.22-1.78-.22-2.81-.79-2.76-3.52-2.76-4.52h-5.47c.03,1.84.07,5.82,4.27,7.64h0c1.34.58,3.1.94,5.42.94,6.92,0,10.66-3.63,10.66-8.13,0-1.88-.63-3.21-1.66-4.19ZM143.76,20.05h-4.98v19.7s-9.38-19.7-9.38-19.7h-7.75v25.03h5.05v-20.77l9.69,20.77h7.37v-25.03ZM28.47,13.23c.8.46,1.66.69,2.52.7,1.84.03,3.64-.91,4.62-2.61,1.44-2.5.59-5.7-1.92-7.14-.86-.49-1.79-.72-2.71-.7-1.77.03-3.48.97-4.43,2.61-1.44,2.5-.59,5.7,1.91,7.14ZM16.53,36l8.05-2.88c1.01-.36,1.77-1.32,2.12-2.41.35-1.09.3-2.31-.3-3.2l-4.82-7.05c-1.21-1.77-3.73-.87-4.54,1.62l-1.61,4.96-1.61,4.97c-.81,2.49.71,4.7,2.72,3.98ZM13.93,26.57c.6-1.74.26-3.74-1.05-5.21-1.93-2.15-5.24-2.32-7.39-.39-.73.66-1.24,1.48-1.5,2.36-.52,1.7-.15,3.61,1.12,5.02,1.93,2.15,5.24,2.32,7.38.39.68-.62,1.16-1.37,1.44-2.18ZM29.65,38.76c-.03-1.07-.71-2.09-1.63-2.76-.93-.67-2.1-1-3.13-.7l-8.2,2.41c-2.06.6-1.98,3.28.14,4.82l4.22,3.07,4.22,3.07c2.12,1.54,4.69.78,4.63-1.36l-.25-8.54ZM20.12,46.86c-1.47-1.11-3.48-1.41-5.28-.61-2.64,1.17-3.82,4.27-2.65,6.9.4.9,1.03,1.63,1.78,2.16,1.45,1.01,3.39,1.26,5.12.49,2.64-1.17,3.82-4.26,2.65-6.9-.37-.84-.94-1.53-1.63-2.05ZM57.98,23.34c-.27-.88-.77-1.7-1.5-2.36-2.15-1.93-5.45-1.76-7.39.39-1.32,1.46-1.66,3.47-1.05,5.21.28.81.76,1.56,1.44,2.18,2.15,1.93,5.45,1.76,7.38-.39,1.27-1.41,1.63-3.33,1.12-5.02ZM33.93,26.08l5.22-6.77c1.31-1.7-.33-3.82-2.95-3.82h-10.44c-2.62,0-4.25,2.12-2.95,3.82l5.22,6.76c.65.85,1.8,1.27,2.95,1.27s2.29-.42,2.95-1.27ZM45.15,42.52c2.12-1.54,2.2-4.22.14-4.82l-8.2-2.41c-1.03-.3-2.21.03-3.13.7-.93.67-1.6,1.69-1.63,2.76l-.25,8.54c-.06,2.14,2.51,2.9,4.63,1.36l4.22-3.07,4.22-3.07ZM47.12,46.25c-1.8-.8-3.81-.5-5.28.61-.69.52-1.25,1.21-1.63,2.05-1.17,2.64.01,5.73,2.65,6.9,1.74.77,3.67.52,5.12-.49.75-.53,1.38-1.26,1.78-2.16,1.17-2.64-.01-5.73-2.65-6.9ZM35.27,30.72c.35,1.09,1.11,2.05,2.12,2.41l8.05,2.88c2.02.72,3.53-1.49,2.72-3.98l-1.61-4.97-1.61-4.96c-.81-2.49-3.33-3.39-4.54-1.62l-4.82,7.05c-.6.89-.65,2.11-.3,3.2Z"/>
</svg>