<?xml version="1.0" encoding="UTF-8"?>
<svg id="Layer_1" data-name="Layer 1" xmlns="http://www.w3.org/2000/svg" xmlns:xlink="http://www.w3.org/1999/xlink" viewBox="0 0 300 300">
  <defs>
    <style>
      .cls-1 {
        fill: url(#linear-gradient);
      }

      .cls-1, .cls-2, .cls-3, .cls-4, .cls-5, .cls-6, .cls-7, .cls-8, .cls-9, .cls-10, .cls-11, .cls-12 {
        stroke-width: 0px;
      }

      .cls-2 {
        fill: url(#linear-gradient-6);
      }

      .cls-3 {
        fill: #128807;
      }

      .cls-4 {
        fill: url(#linear-gradient-5);
      }

      .cls-5 {
        fill: #008;
      }

      .cls-6 {
        fill: url(#linear-gradient-2);
      }

      .cls-7 {
        fill: #ff8c21;
      }

      .cls-8 {
        fill: url(#linear-gradient-7);
      }

      .cls-9 {
        fill: url(#linear-gradient-3);
      }

      .cls-10 {
        fill: url(#linear-gradient-9);
      }

      .cls-11 {
        fill: url(#linear-gradient-8);
      }

      .cls-12 {
        fill: url(#linear-gradient-4);
      }
    </style>
    <linearGradient id="linear-gradient" x1="5993.91" y1="1201.17" x2="5885.83" y2="1393.19" gradientTransform="translate(-5795 1488.06) scale(1 -1)" gradientUnits="userSpaceOnUse">
      <stop offset="0" stop-color="#ff7400"/>
      <stop offset=".36" stop-color="#ff7f0f"/>
      <stop offset="1" stop-color="#f93"/>
    </linearGradient>
    <linearGradient id="linear-gradient-2" x1="5919.93" y1="1338.53" x2="5862.57" y2="1267.64" gradientTransform="translate(-5795 1427.13) scale(1 -1)" gradientUnits="userSpaceOnUse">
      <stop offset="0" stop-color="#ef4747"/>
      <stop offset=".29" stop-color="#e73e3e"/>
      <stop offset=".75" stop-color="#d02727"/>
      <stop offset="1" stop-color="#c11717"/>
    </linearGradient>
    <linearGradient id="linear-gradient-3" x1="5977.84" y1="1371.86" x2="5920.48" y2="1300.97" gradientTransform="translate(-5818.78 1488.06) scale(1 -1)" xlink:href="#linear-gradient"/>
    <linearGradient id="linear-gradient-4" x1="5924.55" y1="1284.01" x2="6019.62" y2="1284.01" gradientTransform="translate(-5849.61 1453.25) scale(1 -1)" gradientUnits="userSpaceOnUse">
      <stop offset="0" stop-color="#006300"/>
      <stop offset=".46" stop-color="#077203"/>
      <stop offset="1" stop-color="#128807"/>
    </linearGradient>
    <linearGradient id="linear-gradient-5" x1="5985.91" y1="1293.34" x2="6019.64" y2="1293.34" gradientTransform="translate(-5849.61 1453.23) scale(1 -1)" xlink:href="#linear-gradient-4"/>
    <linearGradient id="linear-gradient-6" x1="5973.1" y1="1156.66" x2="6019.49" y2="1156.66" gradientTransform="translate(-5869.47 1368.58) scale(1 -1)" xlink:href="#linear-gradient-4"/>
    <linearGradient id="linear-gradient-7" x1="6046.55" y1="1185.29" x2="5938.47" y2="1377.32" gradientTransform="translate(-5831.23 1462.96) scale(1 -1)" xlink:href="#linear-gradient"/>
    <linearGradient id="linear-gradient-8" x1="6001.75" y1="1450.37" x2="6019.52" y2="1450.37" gradientTransform="translate(-5887.17 1510.87) scale(1 -1)" xlink:href="#linear-gradient-4"/>
    <linearGradient id="linear-gradient-9" x1="6002.2" y1="1450.37" x2="6019.97" y2="1450.37" gradientTransform="translate(-5827.89 1510.87) scale(1 -1)" xlink:href="#linear-gradient"/>
  </defs>
  <path class="cls-3" d="M100.44,256.75h-2.04v-7.6h1.94c2.71,0,4.08,1.17,4.08,3.65,0,2.91-1.51,3.95-3.98,3.95ZM100.4,245.23h-7.5v23.2h5.49v-7.73h2.51c5.36,0,9.17-2.51,9.17-7.9,0-5.09-3.68-7.57-9.67-7.57Z"/>
  <path class="cls-3" d="M119.58,253.97c2.14,0,3.21,1.64,3.21,5.59s-1.07,5.56-3.21,5.56-3.21-1.64-3.21-5.59,1.07-5.56,3.21-5.56ZM119.58,250.09c-5.42,0-8.7,3.75-8.7,9.44,0,5.99,3.31,9.47,8.7,9.47s8.7-3.75,8.7-9.44c0-5.99-3.28-9.47-8.7-9.47Z"/>
  <path class="cls-3" d="M136.15,269c1.27,0,2.41-.27,3.21-.6l-1.04-3.75c-.23.1-.5.17-.87.17-.64,0-.9-.37-.9-1.1v-20.69l-5.29.57v20.32c0,3.25,1.81,5.09,4.89,5.09Z"/>
  <path class="cls-3" d="M146.1,269c1.27,0,2.41-.27,3.21-.6l-1.04-3.75c-.23.1-.5.17-.87.17-.64,0-.9-.37-.9-1.1v-20.69l-5.29.57v20.32c0,3.25,1.81,5.09,4.89,5.09Z"/>
  <path class="cls-1" d="M150,75.03s30.82,102.38-51.08,159.18c0,0,33.03-36.69,19.36-67.03-5.9-13.08-43.33-30.72-43.33-30.72,0,0,75.83,23.58,75.05-61.43Z"/>
  <path class="cls-6" d="M78.33,138.12c-2.11-1.06-3.39-1.67-3.39-1.67,6.55,1.82,13.31,2.82,20.11,2.97-5.61.12-11.21-.31-16.73-1.31Z"/>
  <path class="cls-9" d="M149.31,89.57c.52-4.83.75-9.69.69-14.54,0,0,30.82,102.38-51.08,159.18,0,0,2.43-2.71,5.7-7.23,53.04-43.92,49.48-108.74,44.69-137.4Z"/>
  <path class="cls-12" d="M158.29,110.11l9.91,29.37,56.85.64-45.59,33.96,16.96,54.29-46.42-32.91-20.01,14.19c26.42-33.07,30.02-72.28,28.3-99.54Z"/>
  <path class="cls-4" d="M163.71,126.17c-.61,23-5.9,50.74-22.99,75.88l-10.74,7.6c26.4-33.07,29.98-72.27,28.29-99.52l5.44,16.04Z"/>
  <polygon class="cls-2" points="150.01 195.46 194.94 223.7 196.4 228.36 150.01 195.46"/>
  <path class="cls-8" d="M111.46,109.61c0,5.12,4.15,9.27,9.27,9.27,5.12,0,9.27-4.15,9.27-9.28,0-5.12-4.16-9.27-9.28-9.27-5.12,0-9.27,4.15-9.27,9.27h0Z"/>
  <polygon class="cls-11" points="178.53 52.04 176.43 58.5 169.64 58.5 175.14 62.49 173.03 68.94 178.53 64.96 184.02 68.94 181.92 62.49 187.42 58.5 180.63 58.5 178.53 52.04"/>
  <polygon class="cls-5" points="149.07 31 146.97 37.45 140.18 37.45 145.67 41.45 143.57 47.9 149.07 43.91 154.56 47.9 152.46 41.45 157.96 37.45 151.17 37.45 149.07 31"/>
  <polygon class="cls-10" points="118.56 52.04 116.46 58.5 109.67 58.5 115.16 62.49 113.07 68.94 118.56 64.96 124.05 68.94 121.95 62.49 127.44 58.5 120.65 58.5 118.56 52.04"/>
  <path class="cls-7" d="M159.29,244.66c-4.82,0-8.37,2.61-8.37,6.69,0,3.45,1.91,5.59,7.1,7.2,3.38,1.04,4.25,1.81,4.25,3.51s-1.41,2.85-3.68,2.85-4.15-.84-5.86-2.28l-2.78,3.05c1.91,1.84,4.79,3.31,8.8,3.31,5.79,0,9.21-3.01,9.21-7.33s-2.51-6.09-6.9-7.5c-3.62-1.14-4.49-1.74-4.49-3.21s1.21-2.28,3.11-2.28,3.48.64,5.09,1.94l2.54-2.98c-2.04-1.94-4.49-2.98-8.03-2.98Z"/>
  <path class="cls-7" d="M180.25,264.25c-.7.4-1.31.57-1.91.57-1.1,0-1.67-.6-1.67-2.31v-8.17h3.51l.57-3.68h-4.08v-4.45l-5.29.6v3.85h-2.51v3.68h2.51v8.23c0,4.18,1.91,6.39,5.82,6.43,1.61,0,3.48-.47,4.82-1.41l-1.77-3.35Z"/>
  <path class="cls-7" d="M189.52,265.22c-1.31,0-2.08-.84-2.08-2.24,0-1.77,1.17-2.61,3.58-2.61h1.31v3.15c-.64,1.07-1.57,1.71-2.81,1.71ZM197.52,263.28v-6.9c0-4.12-2.21-6.29-7.36-6.29-2.01,0-4.45.47-6.69,1.31l1.21,3.48c1.77-.6,3.51-.94,4.65-.94,2.18,0,3.01.64,3.01,2.74v.77h-1.81c-5.39,0-8.33,2.11-8.33,5.99,0,3.25,2.24,5.56,5.79,5.56,2.11,0,4.08-.7,5.36-2.68.8,1.77,2.18,2.41,4.28,2.58l1.1-3.45c-.84-.3-1.21-.8-1.21-2.18Z"/>
  <path class="cls-7" d="M211.38,250.15c-2.04,0-3.78,1.47-4.59,3.95l-.44-3.45h-4.62v17.78h5.29v-8.8c.57-2.71,1.47-4.35,3.68-4.35.6,0,1.04.1,1.61.23l.84-5.12c-.57-.17-1.1-.23-1.77-.23Z"/>
</svg>